<svg xmlns="http://www.w3.org/2000/svg" viewBox="0 0 238.11 107.72"><defs><style>.cls-1{fill:#f39800;}.cls-2{fill:#2ea7e0;}</style></defs><g id="レイヤー_2" data-name="レイヤー 2"><g id="Design"><path class="cls-1" d="M36.13,107.72a5.29,5.29,0,0,0,5.29-5.28V91H30.85v11.44A5.29,5.29,0,0,0,36.13,107.72Z"/><path class="cls-1" d="M121.23,26.28v8.4A15,15,0,0,1,134,49.48s0,.08,0,.12h8.33s0-.08,0-.12A23.33,23.33,0,0,0,121.23,26.28Z"/><path class="cls-1" d="M121.23,13.13v8.35a28.13,28.13,0,0,1,25.92,28s0,.08,0,.12h8.33s0-.08,0-.12A36.47,36.47,0,0,0,121.23,13.13Z"/><path class="cls-1" d="M121.23,0V8.33a41.26,41.26,0,0,1,39,41.15v.12h8.33v-.12A49.58,49.58,0,0,0,121.23,0Z"/><path class="cls-2" d="M116.93,34.67V26.28a23.33,23.33,0,0,0-21.18,23.2s0,.08,0,.12h8.33s0-.08,0-.12A15,15,0,0,1,116.93,34.67Z"/><path class="cls-2" d="M116.93,21.48V13.13a36.46,36.46,0,0,0-34.3,36.35s0,.08,0,.12H91s0-.08,0-.12A28.12,28.12,0,0,1,116.93,21.48Z"/><path class="cls-2" d="M116.93,8.33V0A49.59,49.59,0,0,0,69.52,49.48v.12h8.33v-.12A41.25,41.25,0,0,1,116.93,8.33Z"/><path class="cls-2" d="M5.28,107.24H0V82.15C0,74.31,4.76,70,10.56,70s10.61,4.33,10.61,12.17v25.09H15.84V91.67H5.28ZM15.84,82.15c0-4.66-2.38-6.89-5.28-6.89s-5.28,2.23-5.28,6.89v4.24H15.84Z"/><path class="cls-2" d="M36.13,70a5.28,5.28,0,0,0-5.28,5.28V86.69H41.42V75.26A5.28,5.28,0,0,0,36.13,70Z"/><path class="cls-2" d="M86.63,81.11A10.6,10.6,0,0,1,76.07,91.67H69.69v15.57H64.41V70.5H76.07A10.61,10.61,0,0,1,86.63,81.11Zm-5.28,0a5.31,5.31,0,0,0-5.28-5.33H69.69V86.39h6.38A5.3,5.3,0,0,0,81.35,81.11Z"/><path class="cls-2" d="M108.73,86V70.5h5.33v36.74h-5.33v-16H98.16v16H92.88V70.5h5.28V86Z"/><path class="cls-2" d="M176.12,107.24h-6.47L162,91.67h-3.9v15.57h-5.29V70.5h10a10.61,10.61,0,0,1,10.57,10.61,10.44,10.44,0,0,1-5.76,9.37l-.59.29Zm-8-26.13a5.31,5.31,0,0,0-5.28-5.33h-4.75V86.39h4.75A5.29,5.29,0,0,0,168.17,81.11Z"/><path class="cls-2" d="M203.66,107.24V83.11L196,97.47h-1L187.3,83.11v24.13h-5V70.5h4.32l8.9,16.7,8.9-16.7h4.33v36.74Z"/><path class="cls-2" d="M222.22,107.24h-5.28V82.15c0-7.84,4.76-12.17,10.56-12.17s10.61,4.33,10.61,12.17v25.09h-5.33V91.67H222.22Zm10.56-25.09c0-4.66-2.38-6.89-5.28-6.89s-5.28,2.23-5.28,6.89v4.24h10.56Z"/><path class="cls-2" d="M128.15,107.24h-5.28V82.15c0-7.84,4.76-12.17,10.56-12.17S144,74.31,144,82.15v25.09h-5.33V91.67H128.15Zm10.56-25.09c0-4.66-2.38-6.89-5.28-6.89s-5.28,2.23-5.28,6.89v4.24h10.56Z"/><rect class="cls-2" x="49.88" y="86.39" width="6.07" height="5.28"/></g></g></svg>